The Disappearance of Alice Creed (2009) 1080p AC3+DTS NLSubs

PLOT

Two men fortify a nondescript British apartment so it can serve as a prison, and then kidnap 
a woman and tie her to a bed. Before there's even time to react, 
we're plunged into a very nasty situation, but not a simple one. 

MM:    http://www.moviemeter.nl/film/60235

IMDB:     http://www.imdb.com/title/tt1379177/

INFO

Source........: 1080p 
Bitrate.......: 11,0 Mbps

Audio
Formaat.......: DTS
Bitrate.......: 1510 Kbps
Kanaal(en)....: 6 kanalen
Kanaalposities: Front: L C R, Side: L R, LFE

Formaat.......: DD5.1
Bitrate.......: 448 Kbps
Kanaal(en)....: 6 kanalen
Kanaalposities: Front: L C R, Side: L R, LFE


Ondertiteling: Dutch (selectable)
Vertaling....: Poppetje1969

Controle en Sync: Guiker
Bewerking Source: Guiker

Thanks To Guiker

Enjoy

      Format : Matroska
      File size : 8.91 GiB
      Duration : 1h 40mn
      Overall bit rate : 12.7 Mbps
      Encoded date : UTC 2010-10-05 17:47:50
      Writing application : mkvmerge v4.3.0 ('Escape from the Island') gemaakt op Sep  5 2010 10:30:51
      Writing library : libebml v1.0.0 + libmatroska v1.0.0
   Video #1
      ID : 1
      Format : AVC
      Format/Info : Advanced Video Codec
      Format profile : High@L4.1
      Format settings, CABAC : Yes
      Format settings, ReFrames : 5 frames
      Muxing mode : Container profile=Unknown@4.1
      Codec ID : V_MPEG4/ISO/AVC
      Duration : 1h 40mn
      Bit rate : 10.5 Mbps
      Nominal bit rate : 11.0 Mbps
      Width : 1 920 pixels
      Height : 800 pixels
      Display aspect ratio : 2.40:1
      Frame rate : 23.976 fps
      Resolution : 24 bits
      Colorimetry : 4:2:0
      Scan type : Progressive
      Bits/(Pixel*Frame) : 0.286
      Stream size : 7.36 GiB (83%)
      Writing library : x264 core 105 r1732 2b04482
      Encoding settings : cabac=1 / ref=5 / deblock=1:0:0 / analyse=0x3:0x133 / 
me=umh / subme=8 / psy=1 / psy_rd=1.00:0.00 / mixed_ref=1 / me_range=16 / chroma_me=1 / 
trellis=1 / 8x8dct=1 / cqm=0 / deadzone=21,11 / fast_pskip=0 / chroma_qp_offset=-2 / 
threads=18 / sliced_threads=0 / nr=0 / decimate=1 / interlaced=0 / constrained_intra=0 / 
bframes=3 / b_pyramid=2 / b_adapt=1 / b_bias=0 / direct=1 / weightb=1 / open_gop=0 / 
weightp=2 / keyint=250 / keyint_min=23 / scenecut=40 / intra_refresh=0 / rc_lookahead=40 / 
rc=2pass / mbtree=1 / bitrate=10980 / ratetol=1.0 / qcomp=0.60 / qpmin=10 / qpmax=51 / 
qpstep=4 / cplxblur=20.0 / qblur=0.5 / ip_ratio=1.40 / aq=1:1.00
   Audio #2
      ID : 2
      Format : DTS
      Format/Info : Digital Theater Systems
      Codec ID : A_DTS
      Duration : 1h 40mn
      Bit rate mode : Constant
      Bit rate : 1 510 Kbps
      Channel(s) : 6 channels
      Channel positions : Front: L C R, Surround: L R, LFE
      Sampling rate : 48.0 KHz
      Resolution : 24 bits
      Stream size : 1.06 GiB (12%)
   Audio #3
      ID : 3
      Format : AC-3
      Format/Info : Audio Coding 3
      Codec ID : A_AC3
      Duration : 1h 40mn
      Bit rate mode : Constant
      Bit rate : 448 Kbps
      Channel(s) : 6 channels
      Channel positions : Front: L C R, Surround: L R, LFE
      Sampling rate : 48.0 KHz
      Stream size : 321 MiB (4%)
   Text #4
      ID : 4
      Format : UTF-8
      Codec ID : S_TEXT/UTF8
      Codec ID/Info : UTF-8 Plain Text
      Language : Dutch

